<svg height="300px" width="300px" fill="#000000" xmlns="http://www.w3.org/2000/svg" xmlns:xlink="http://www.w3.org/1999/xlink" version="1.1" x="0px" y="0px" viewBox="0 0 100 100" style="enable-background:new 0 0 100 100;" xml:space="preserve"><style type="text/css">
	.st0{display:none;}
	.st1{display:inline;}
</style><g fill="current"><path d="M41.3,50c0,0,3.3-3.9,5-3.7c0,0,0.5-0.1,0.9,0.7c0.3,0.8,0.8,1.2,1.2,1c0.4-0.2-0.1-1.7-0.1-1.7s-0.7-1.7-1.6-1.3   c-0.9,0.4-2.5,1.2-4.5,3.2c-2,2-1.5,2.1-1.5,2.1S40.8,50.5,41.3,50z"/><path d="M57.8,50c0,0-3.3-3.9-5-3.7c0,0-0.5-0.1-0.9,0.7c-0.3,0.8-0.8,1.2-1.2,1c-0.4-0.2,0.1-1.7,0.1-1.7s0.7-1.7,1.6-1.3   c0.9,0.4,2.5,1.2,4.5,3.2c2,2,1.5,2.1,1.5,2.1S58.3,50.5,57.8,50z"/><path d="M49.6,52.2c0,0-2.7-0.4-6.2,0.7c0,0-2.4,1.1-3,1.8s-1,2.9-3.5,1.9c0,0-2.1-1.7,0.6-3.7s8.1-2.1,8.1-2.1s6.2-0.4,9.5,0   c3.4,0.4,7.3,1.3,7.3,3.9c0,1.7-2,1.6-3.2,1c-1.2-0.6-0.6-1.1-1.5-1.6C56.9,53.6,52.9,52.2,49.6,52.2z"/><path d="M37.9,43.4c-3.9,0-7-3.1-7-7s3.1-7,7-7s7,3.1,7,7S41.8,43.4,37.9,43.4z M37.9,31c-2.9,0-5.3,2.4-5.3,5.3s2.4,5.3,5.3,5.3   s5.3-2.4,5.3-5.3S40.9,31,37.9,31z"/><path d="M61.6,43.4c-3.9,0-7-3.1-7-7s3.1-7,7-7c3.9,0,7,3.1,7,7S65.5,43.4,61.6,43.4z M61.6,31c-2.9,0-5.3,2.4-5.3,5.3   s2.4,5.3,5.3,5.3c2.9,0,5.3-2.4,5.3-5.3S64.5,31,61.6,31z"/><path d="M85.5,29.8C73.2,4,50.7,5,50.7,5s-28.1-2-39.4,33.1C-0.2,74.2,23.3,92,23.3,92c6.4,4.5,17.8,2.2,24.5,1.9   c5.3-0.2,7.3,1,17.3,1c13.4,0,20.4-14.1,20.4-14.1S99.8,59.9,85.5,29.8z M26.8,74.6c0.5,6.5-1.6,7.1-2.5,7.3c-0.9,0.2-4-2-2.1-8.2   c1.9-6.1,5.6-7.8,5.6-7.8S26.3,68,26.8,74.6z M37.1,86.1c-1.1,0.4-5-1.7-3.8-9.2c1.2-7.4,5.3-10,5.3-10s-1.5,2.8,0.2,10.3   C40.5,84.7,38.2,85.8,37.1,86.1z M49.5,87.8c-4.6-1-3.7-9.2-3.7-9.2c1.2-10.8,3.7-13.8,3.7-13.8s3.2,4.2,4,13.3   C54.3,87.2,49.5,87.8,49.5,87.8z M63.5,86.1c-1.1-0.4-3.4-1.4-1.7-8.9C63.5,69.7,62,67,62,67s4.1,2.6,5.3,10   C68.4,84.4,64.5,86.5,63.5,86.1z M76.2,81.9c-0.9-0.2-3-0.8-2.5-7.3s-1.1-8.7-1.1-8.7s3.8,1.7,5.6,7.8C80.2,79.8,77.2,82,76.2,81.9   z M80.7,57.1c-1.8,2.5-4.7,3.6-8.5,3.5c-15.7-0.6-20.9,0-21,0l-0.1,0l-0.1,0c-0.1,0-7.4-0.6-23.1,0c-3.9,0.1-6.7-1-8.5-3.5   c-4.7-6.5,0.1-19.6,0.3-20.2C27.5,17.7,41.9,20,48,21c0.9,0.1,1.6,0.3,2,0.3c0.4,0,1.1-0.1,1.8-0.3c5.6-1,20.6-3.6,28.5,15.9   C80.6,37.5,85.4,50.6,80.7,57.1z"/><path d="M75,33.7c-0.9-1.9-2.9-5.9-8.6-7.7c-3.3-1-6.3,0.2-8.5,1.6l0,0c0,0,0,0,0,0c-0.1,0.1-0.2,0.1-0.3,0.2   c-1,0.6-3.8,2.2-6.6,1.9c1.6-1.4,2.2-3.6,2.2-3.6c-1,1.9-2.3,2.9-3.6,3.3c-1.3-0.5-2.6-1.5-3.6-3.3c0,0,0.6,2.2,2.2,3.6   c-2.8,0.3-5.5-1.2-6.5-1.8c-2.2-1.5-5.4-3-8.9-1.9c-5.7,1.8-7.8,5.8-8.6,7.7c0,0-1.4,3.2,0.6,4.1c2.5,1.1,4.1-1.2,4.3-2.3   c0.4-1.6-0.5-5.4,3.6-7.3c1.7-0.8,3.8-1.4,8.1,0.3l0,0c0.1,0,0.1,0.1,0.2,0.1c0.4,0.1,0.8,0.3,1.2,0.5c1.8,0.9,3.4,2.2,6.2,1.8   c0.4-0.1,0.8-0.2,1.2-0.3c0.4,0.2,0.7,0.3,1.2,0.3c2.7,0.3,4.3-0.8,6.1-1.7c5.4-2.5,7.8-1.8,9.7-0.9c4.1,1.9,3.2,5.7,3.6,7.3   c0.2,1,1.8,3.4,4.3,2.3C76.4,36.9,75,33.7,75,33.7z"/><path d="M55.4,45.3c0,0,5.9,1.9,10.8-2.5c5.8-5.3,12.7-2.9,13.6,4.4c0.9,7.3-4.1,10.1-7.5,9.6c-3.4-0.5-7-3.5-7-3.5s9,2.2,10.5-2.8   c1.5-5-1.7-7.4-3.6-6.4s-4.7,4.1-8.3,4C59.2,48.1,55.4,45.3,55.4,45.3z"/><path d="M44.2,45.3c0,0-5.9,1.9-10.8-2.5c-5.8-5.3-12.7-2.9-13.6,4.4c-0.9,7.3,4.1,10.1,7.5,9.6s7-3.5,7-3.5s-9,2.2-10.5-2.8   c-1.5-5,1.7-7.4,3.6-6.4c1.9,0.9,4.7,4.1,8.3,4C40.4,48.1,44.2,45.3,44.2,45.3z"/></g></svg>
